<?xml version="1.0" encoding="UTF-8"?>
<!DOCTYPE svg PUBLIC "-//W3C//DTD SVG 1.1//EN" "http://www.w3.org/Graphics/SVG/1.1/DTD/svg11.dtd">
<!-- Creator: CorelDRAW X7 -->
<svg xmlns="http://www.w3.org/2000/svg" xml:space="preserve" width="50.5677mm" height="40.1908mm" version="1.1" style="shape-rendering:geometricPrecision; text-rendering:geometricPrecision; image-rendering:optimizeQuality; fill-rule:evenodd; clip-rule:evenodd"
viewBox="0 0 4736 3764"
 xmlns:xlink="http://www.w3.org/1999/xlink">
 <defs>
  <style type="text/css">
   <![CDATA[
    .str1 {stroke:#2B2A29;stroke-width:18.7309}
    .str0 {stroke:#2B2A29;stroke-width:7.13646}
    .fil0 {fill:#2B2A29}
   ]]>
  </style>
 </defs>
 <g id="Layer_x0020_1">
  <metadata id="CorelCorpID_0Corel-Layer"/>
  <path class="fil0 str0" d="M2368 883c567,0 1026,299 1026,667 0,368 -459,667 -1026,667 -567,0 -1026,-299 -1026,-667 0,-368 459,-667 1026,-667zm0 357c224,0 406,119 406,265 0,146 -182,264 -406,264 -225,0 -407,-118 -407,-264 0,-146 182,-265 407,-265z"/>
  <ellipse class="fil0 str0" cx="2368" cy="1493" rx="229" ry="137"/>
  <path class="fil0 str1" d="M2391 604c568,0 1054,206 1249,496 102,104 362,58 107,-199 -280,-265 -782,-442 -1356,-442 -609,0 -1137,199 -1405,492 -41,52 -57,93 -56,124 3,91 152,88 221,13 201,-284 680,-484 1240,-484z"/>
  <path class="fil0 str1" d="M2365 2719l1 0 5 0 0 0 5 0c6,0 13,0 20,1l0 0 5 1 0 0 0 0c89,10 157,56 163,113 1,5 2,10 2,14 0,2 0,4 0,5l-2 0c-8,64 -94,114 -199,114 -110,0 -199,-56 -199,-124 0,-69 89,-124 199,-124zm86 -2688c3,1 5,2 6,3l1 1 1 1 1 0 2 1 0 0 2 2 0 0 2 1 0 1 2 1 0 0 1 1 0 0 2 2 0 0 1 1 1 0 1 2 1 0 1 1 0 1 2 1 0 0 1 2 1 0 1 2 0 0 1 2 1 0 1 1 0 1 1 1 0 0 1 2 1 0 1 2 0 0 1 1 0 1 1 1 0 1 1 2 0 0 1 1 0 1 1 1 0 0 1 2 0 0 1 2 0 1 0 0 1 1 0 1 0 1 1 1 0 1 0 1 1 2 0 2 0 0 0 0 1 -2c1204,43 2165,679 2205,1466l0 0 0 22 22 471 0 17 0 0c-1,229 -65,448 -180,647 -120,208 -296,395 -513,551 -218,156 -477,281 -765,367 -278,82 -582,128 -900,128 -319,0 -622,-46 -900,-128 -288,-86 -547,-211 -765,-367 -217,-156 -393,-343 -513,-551 -115,-199 -179,-418 -180,-647l0 0 0 -17 1 -4 0 -12 0 0 29 -558 2 -17 0 0c111,-741 1041,-1327 2195,-1368l0 2c1,-2 1,-4 2,-6l0 0 1 -2 0 0 1 -2 0 0 1 -2 0 -2 0 0 1 -2c1,-1 2,-2 2,-4l1 0 0 -1 1 -1 1 -2 0 0 1 -1 0 -1 1 -1 1 -2 1 0 0 0 1 -2 2 -2c0,-1 1,-2 2,-3l1 0 0 -1 1 -1 1 -1 0 0 1 -1 1 0 1 -1 0 0 1 -2 1 0 1 -1 0 0 2 -2 0 0 2 -1 0 0 2 -2 0 0 2 -1 0 -1 2 -1 1 0 1 -1 0 0c2,-2 4,-3 6,-4l2 -1 1 -1 2 -1 0 0 2 -1 0 0 2 -1 1 0 2 -1 1 -1 1 0 1 -1 1 0 1 -1 1 0 1 -1 2 0 1 -1 2 0 0 0 2 -1 1 0 2 -1 3 -1 0 0 3 -1 0 0 2 -1 1 0 2 0 1 -1 2 0 2 0 1 -1 2 0 0 0 3 -1 0 0 0 0 3 0 0 0 3 -1 0 0 3 0 0 0 1 0 3 -1 0 0 2 0 1 0 0 0 3 0 0 0 2 0 2 0 1 0 1 0 2 -1 2 0 1 0 3 0 3 0 0 0 3 0 1 0 2 1 1 0 2 0 0 0 2 0 1 0 2 0 0 0 3 0 0 0 1 1 2 0 1 0 3 0 0 0 3 1 0 0 2 0 1 0 2 1 1 0 2 0 0 0 2 1 1 0 2 1 1 0 1 0 1 0 2 1 1 0 2 1 1 0 2 1 0 0 3 1 0 0 2 0 1 1 2 0 1 1 1 0 2 1 0 0 2 1 1 0 0 0 2 1 1 1 2 1 0 0 2 1 1 0 2 1 0 0 2 1 1 1 1 1 0 0zm47 93c-13,43 -66,76 -130,76 -64,0 -118,-33 -130,-76 -2,6 -3,12 -3,19 0,52 60,95 133,95 73,0 132,-43 132,-95 0,-7 -1,-13 -2,-19zm209 101c0,1 0,3 0,5 0,52 -152,95 -339,95 -188,0 -340,-43 -340,-95 0,-2 1,-4 1,-5 -1024,100 -1807,648 -1807,1309 0,627 705,1152 1653,1290 69,-11 135,-40 199,-86 5,-4 11,-8 16,-13 61,-41 162,-68 276,-68 182,0 296,84 293,81 64,47 131,75 200,86 948,-137 1655,-663 1655,-1290 0,-661 -783,-1209 -1807,-1309z"/>
 </g>
</svg>
